<svg id="Gradient" height="512" viewBox="0 0 512 512" width="512" xmlns="http://www.w3.org/2000/svg" xmlns:xlink="http://www.w3.org/1999/xlink"><linearGradient id="linear-gradient" gradientUnits="userSpaceOnUse" x1="244" x2="244" y1="496" y2="31.998"><stop offset="0" stop-color="#12bee5"/><stop offset=".5" stop-color="#c071e9"/><stop offset="1" stop-color="#f24f5a"/></linearGradient><path d="m360 320a72 72 0 1 0 72 72 72.081 72.081 0 0 0 -72-72zm0 128a56 56 0 1 1 56-56 56.064 56.064 0 0 1 -56 56zm-128-112a8 8 0 0 1 -8 8h-144a8 8 0 0 1 0-16h144a8 8 0 0 1 8 8zm-80 32a8 8 0 0 1 -8 8h-64a8 8 0 0 1 0-16h64a8 8 0 0 1 8 8zm0 32a8 8 0 0 1 -8 8h-64a8 8 0 0 1 0-16h64a8 8 0 0 1 8 8zm0 32a8 8 0 0 1 -8 8h-64a8 8 0 0 1 0-16h64a8 8 0 0 1 8 8zm72-72h-40a8 8 0 0 0 -8 8v64a8 8 0 0 0 8 8h40a8 8 0 0 0 8-8v-64a8 8 0 0 0 -8-8zm-8 64h-24v-48h24zm171.578-39.155-32-16a8 8 0 0 0 -11.578 7.155v32a8 8 0 0 0 11.578 7.155l32-16a8 8 0 0 0 0-14.31zm-27.578 10.211v-6.112l6.111 3.056zm-344-155.056a32.056 32.056 0 0 0 24 30.987v217.013a8 8 0 0 0 8 8h416a8 8 0 0 0 8-8v-240a8 8 0 0 0 -8-8h-384a31.961 31.961 0 0 0 -.966-7.8l370.979-96.455a8 8 0 0 0 5.705-9.848l-24-88a8 8 0 0 0 -9.731-5.638l-400 104a8 8 0 0 0 -5.7 9.848l17.756 65.107a32.038 32.038 0 0 0 -18.043 28.786zm339.313 48 32-32h33.374l-32 32zm-22.626 0h-33.374l32-32h33.374zm-56 0h-33.374l32-32h33.374zm-56 0h-33.374l32-32h33.374zm-56 0h-33.374l32-32h33.374zm-56 0h-33.374l32-32h33.374zm-52.687 192v-176h400v176zm400-192h-44.687l32-32h12.687zm-371.313-32-28.687 28.687v-13.7a32.12 32.12 0 0 0 19.695-14.987zm-34.926-47.949-1.966-7.21 30.192 15.1-7.01 1.822a31.909 31.909 0 0 0 -21.216-9.712zm297.623-89.325 39.456 16.909-32.81 8.531-39.206-16.8zm-57.647 15.294 39.012 16.719-37.79 9.826-38.723-16.6zm-24.058 33.117-37.79 9.826-38.241-16.389 37.608-9.978-.027.063zm-101.118.093 38.048 16.306-37.79 9.825-37.759-16.182zm-62.588 16.605 37.565 16.1-38.014 9.884-33.795-16.9zm310.148-54.772-39.65-16.993 58.649-15.56 7.032 25.784zm6.241-79.331 8.548 31.342-383.995 101.876-9.067-33.244zm-370.362 174.268a16 16 0 1 1 -16 16 16.019 16.019 0 0 1 16-16z" fill="url(#linear-gradient)"/></svg>