<svg height="480pt" viewBox="0 -16 480.00003 480" width="480pt" xmlns="http://www.w3.org/2000/svg"><path d="m472 128.007812c.03125-57.871093-41.265625-107.511718-98.175781-118.011718-56.910157-10.5-113.203125 21.136718-133.824219 75.210937-20.621094-54.074219-76.910156-85.710937-133.824219-75.210937-56.910156 10.5-98.207031 60.140625-98.175781 118.011718 0 136 165.726562 312 232 312s232-176 232-312zm0 0" fill="#fa507f"/><path d="m144 104.007812 16 40h40l-32 32 16 40-40-16-40 16 16-40-32-32h40zm0 0" fill="#ffdf3e"/><path d="m336 104.007812 16 40h40l-32 32 16 40-40-16-40 16 16-40-32-32h40zm0 0" fill="#ffdf3e"/><path d="m336 264.007812c0 53.019532-42.980469 96-96 96s-96-42.980468-96-96zm0 0" fill="#a21d1f"/><path d="m352 .0078125c-46.570312.2187495-89.394531 25.5624995-112 66.2773435-28.140625-51.183594-87.378906-76.800781-143.945312-62.253906-56.570313 14.546875-96.0976568 65.566406-96.054688 123.976562 0 137.40625 164.671875 320 240 320s240-182.59375 240-320c-.082031-70.660156-57.34375-127.9179682-128-127.9999995zm-112 431.9999995c-60 0-224-172.347656-224-304-.03125-54.015624 38.511719-100.347656 91.628906-110.148437 53.117188-9.796875 105.65625 19.734375 124.898438 70.203125 1.183594 3.097656 4.15625 5.140625 7.472656 5.140625s6.289062-2.042969 7.472656-5.140625c19.242188-50.46875 71.78125-80 124.898438-70.203125 53.117187 9.800781 91.660156 56.132813 91.628906 110.148437 0 131.652344-164 304-224 304zm0 0"/><path d="m181.023438 223.4375c2.972656 1.191406 6.367187.492188 8.628906-1.769531 2.265625-2.261719 2.960937-5.65625 1.773437-8.628907l-14.050781-35.097656 28.273438-28.269531c2.292968-2.289063 2.980468-5.730469 1.742187-8.722656-1.234375-2.992188-4.152344-4.941407-7.390625-4.941407h-34.582031l-13.984375-34.976562c-1.214844-3.042969-4.160156-5.039062-7.433594-5.039062s-6.21875 1.996093-7.433594 5.039062l-13.980468 34.976562h-34.585938c-3.234375 0-6.152344 1.949219-7.390625 4.9375-1.238281 2.988282-.550781 6.429688 1.734375 8.714844l28.273438 28.273438-14.050782 35.097656c-1.1875 2.96875-.492187 6.363281 1.773438 8.628906 2.261718 2.261719 5.65625 2.960938 8.628906 1.769532l37.03125-14.808594zm-62.625-21.792969 9.074218-22.664062c1.1875-2.972657.488282-6.367188-1.777344-8.628907l-18.382812-18.34375h20.6875c3.273438 0 6.214844-1.988281 7.433594-5.027343l8.566406-21.4375 8.566406 21.4375c1.21875 3.039062 4.160156 5.027343 7.433594 5.027343h20.6875l-18.34375 18.34375c-2.265625 2.261719-2.964844 5.65625-1.777344 8.628907l9.074219 22.664062-22.664063-9.070312c-1.914062-.757813-4.039062-.757813-5.953124 0zm0 0"/><path d="m392 136.007812h-34.582031l-13.984375-34.976562c-1.214844-3.042969-4.160156-5.039062-7.433594-5.039062s-6.21875 1.996093-7.433594 5.039062l-13.980468 34.976562h-34.585938c-3.234375 0-6.152344 1.949219-7.390625 4.9375-1.238281 2.988282-.550781 6.429688 1.734375 8.714844l28.273438 28.273438-14.050782 35.097656c-1.1875 2.96875-.492187 6.363281 1.773438 8.628906 2.261718 2.261719 5.65625 2.960938 8.628906 1.769532l37.03125-14.808594 37.023438 14.816406c2.972656 1.191406 6.367187.492188 8.628906-1.769531 2.265625-2.261719 2.960937-5.65625 1.773437-8.628907l-14.050781-35.097656 28.273438-28.269531c2.292968-2.289063 2.980468-5.730469 1.742187-8.722656-1.234375-2.992188-4.152344-4.941407-7.390625-4.941407zm-37.65625 34.34375c-2.265625 2.261719-2.964844 5.65625-1.777344 8.628907l9.074219 22.664062-22.664063-9.070312c-1.914062-.757813-4.039062-.757813-5.953124 0l-22.625 9.070312 9.074218-22.664062c1.1875-2.972657.488282-6.367188-1.777344-8.628907l-18.382812-18.34375h20.6875c3.273438 0 6.214844-1.988281 7.433594-5.027343l8.566406-21.4375 8.566406 21.4375c1.21875 3.039062 4.160156 5.027343 7.433594 5.027343h20.6875zm0 0"/><path d="m336 256.007812h-192c-4.417969 0-8 3.578126-8 8 0 57.4375 46.5625 104 104 104s104-46.5625 104-104c0-4.421874-3.582031-8-8-8zm-96 96c-45.480469-.054687-83.449219-34.714843-87.640625-80h175.28125c-4.191406 45.285157-42.160156 79.945313-87.640625 80zm0 0"/></svg>