<svg height="512pt" viewBox="0 0 512 512" width="512pt" xmlns="http://www.w3.org/2000/svg" xmlns:xlink="http://www.w3.org/1999/xlink"><linearGradient id="a" gradientUnits="userSpaceOnUse" x1="256" x2="256" y1="0" y2="512"><stop offset="0" stop-color="#2af598"/><stop offset="1" stop-color="#009efd"/></linearGradient><path d="m437.019531 74.980469c-48.351562-48.351563-112.640625-74.980469-181.019531-74.980469s-132.667969 26.628906-181.019531 74.980469c-48.351563 48.351562-74.980469 112.640625-74.980469 181.019531s26.628906 132.667969 74.980469 181.019531c48.351562 48.351563 112.640625 74.980469 181.019531 74.980469s132.667969-26.628906 181.019531-74.980469c48.351563-48.351562 74.980469-112.640625 74.980469-181.019531s-26.628906-132.667969-74.980469-181.019531zm34.960938 179.34375-73.980469 41.6875v-202.632813c44.929688 39.28125 73.488281 96.832032 73.980469 160.945313zm-314.980469 64.304687v-123.507812l103.296875-58.613282 97.703125 55.277344v126.765625l-101.003906 56.917969zm201-252.980468v80.179687l-168.511719-95.335937c20.960938-6.800782 43.3125-10.492188 66.511719-10.492188 36.867188 0 71.601562 9.292969 102 25.648438zm-213.441406 5.382812 75.152344 42.515625-175.425782 99.542969c12.171875-60.136719 49.398438-111.289063 100.273438-142.058594zm-104.488282 190.441406 76.929688-43.652344v203.371094c-45.75-38.558594-75.332031-95.722656-76.929688-159.71875zm116.929688 186.464844v-83.296875l168.617188 95.84375c-21.851563 7.460937-45.269532 11.515625-69.617188 11.515625-35.660156 0-69.324219-8.695312-99-24.0625zm212.734375-8.386719-72.175781-41.027343 169.242187-95.367188c-12.832031 57.390625-48.5625 106.230469-97.066406 136.394531zm-113.734375-243.550781c-33.085938 0-60 26.914062-60 60s26.914062 60 60 60 60-26.914062 60-60-26.914062-60-60-60zm0 80c-11.027344 0-20-8.972656-20-20s8.972656-20 20-20 20 8.972656 20 20-8.972656 20-20 20zm0 0" fill="url(#a)"/></svg>