<?xml version="1.0" encoding="UTF-8"?>
<svg xmlns="http://www.w3.org/2000/svg" xmlns:xlink="http://www.w3.org/1999/xlink" id="Gradient" viewBox="0 0 512 512" width="512" height="512"><defs><linearGradient id="linear-gradient" x1="256.006" y1="496.004" x2="256.006" y2="16" gradientUnits="userSpaceOnUse"><stop offset="0" stop-color="#12bee5"/><stop offset="0.5" stop-color="#c071e9"/><stop offset="1" stop-color="#f24f5a"/></linearGradient></defs><path d="M436.306,336.52A135.965,135.965,0,0,0,496,224c0-74.991-61.009-136-136-136a135.155,135.155,0,0,0-64,16.031V24a8,8,0,0,0-8-8H24a8,8,0,0,0-8,8V488a8,8,0,0,0,8,8H288a8,8,0,0,0,8-8V343.969a135.909,135.909,0,0,0,96.466,12.105L450.183,482a24.07,24.07,0,0,0,21.827,14,24,24,0,0,0,21.807-34ZM264,127.76V104h16v10.091A137,137,0,0,0,264,127.76ZM280,88H264V72h16Zm-32,32H64V32H248ZM48,88H32V72H48Zm0,16v16H32V104Zm0,32v16H32V136Zm0,32v16H32V168Zm0,32v16H32V200Zm0,32v16H32V232Zm0,32v16H32V264Zm0,32v16H32V296Zm0,32v16H32V328Zm0,32v16H32V360Zm0,32v16H32V392Zm0,32v16H32V424Zm16-32H248v88H64Zm200,32h16v16H264Zm0-16V392h16v16Zm0-32V360h16v16Zm-16,0H64V264h48v32a8,8,0,0,0,11.885,6.993L194.073,264h35.933A135.559,135.559,0,0,0,248,301.055ZM128,282.4V229.6L175.527,256ZM226.121,248H194.073l-70.188-38.993A8,8,0,0,0,112,216v32H64V136H248v10.945A135.951,135.951,0,0,0,226.121,248ZM280,56H264V32h16ZM48,32V56H32V32ZM32,456H48v24H32Zm232,24V456h16v24Zm16-136H264V320.24a137,137,0,0,0,16,13.669ZM240,224A120,120,0,1,1,360,344,120.136,120.136,0,0,1,240,224ZM479.5,474.786a8,8,0,0,1-14.772.547L407.875,351.292a135.5,135.5,0,0,0,14.611-6.523l56.786,123.9A7.946,7.946,0,0,1,479.5,474.786ZM360,120A104,104,0,1,0,464,224,104.118,104.118,0,0,0,360,120Zm0,192a88,88,0,1,1,88-88A88.1,88.1,0,0,1,360,312Zm8-152a8,8,0,0,1-8,8,56.064,56.064,0,0,0-56,56,8,8,0,0,1-16,0,72.081,72.081,0,0,1,72-72A8,8,0,0,1,368,160Z" style="fill:url(#linear-gradient)"/></svg>
